<svg xmlns="http://www.w3.org/2000/svg" width="1092.266" height="655.613" viewBox="0 0 1092.266 655.613"><defs><style>.a{fill:#fff6dd;opacity:0.25;}</style></defs><path class="a" d="M17744.271,15421.989c.063-1.279.1-2.567.1-3.859a85.619,85.619,0,1,0-171.238,0c0,1.292.041,2.58.1,3.859H17485.2c.055-1.279.094-2.567.094-3.859a85.616,85.616,0,1,0-171.232,0c0,1.292.041,2.58.094,3.859h-88.039c.059-1.279.094-2.567.094-3.859a85.616,85.616,0,1,0-171.232,0c0,1.292.039,2.58.094,3.859h-88.035c.053-1.279.094-2.567.094-3.859a85.616,85.616,0,1,0-171.232,0c0,1.292.039,2.58.094,3.859H16724v-134.555h39.785l13.244-91.47-25.182,25.183-3.26-3.26-13.039-13.038,30.105-30.105h-.25v-15.157l39.889-24.061-57.121-57.116,3.26-3.26,13.039-13.038,51.848,51.849-13.037,13.038,6.076,6.077,12.529-7.557v-.009h.018v.009l11.875,7.163,58.158-58.158,3.26,3.26,13.043,13.038-51.85,51.85-13.039-13.039-5.5,5.5,40.533,24.449v15.157h-14.7l2.143,14.782,29.121,29.126-3.26,3.26-13.039,13.038-7.3-7.3,8.66,59.786h21.412V15157.5c16.361,0,20.9-16.66,20.9-16.66v-8.178h7.27v-7.878h41.463v7.878h7.27v8.178s4.186,15.2,18.861,16.531v-27.275h18.287l14.07-31.5h7.955v-15.229h25.4v15.229h7.959l14.076,31.5h18.283v17.5h13.279l22.129-30.463h29.371l22.133,30.463h15.775v139.845h12.117V15097.94l21.973-60.246h-4.307v-4.762h6.041l5.684-15.564h2.057v-5.687h1.953l1.658-58.368h3.342l1.662,58.368h1.955v5.688h2.057l5.678,15.564h6.041v4.762h-4.3l21.971,60.246V15117h35.082l15.4-11.817h-3.5v-4.319h13.727v4.319h-4.328l15.02,11.817h36.285v-19.062l21.975-60.246h-4.3v-4.762h6.041l5.678-15.564h2.061v-5.687h1.951l1.662-58.368h3.336l1.664,58.368h1.953v5.688h2.057l5.68,15.564h6.045v4.762h-4.307l21.977,60.246v189.494h17.354v-169.865h10.664l15.363-39.383h71.549l15.369,39.383h10.664v169.865h17.486v-184.28h16.553l31.1-35.431h3.2v-13.4h13.8v13.4h28.049v-13.4h13.8v13.4h4.623l31.107,35.431h16.547v184.28h26.408v134.555Zm-323.123-151.971v17.416h29.484v-17.416a14.742,14.742,0,0,0-29.484,0Zm-46.777-5.871v23.287h20.25v-23.287a9.593,9.593,0,0,0-9.6-9.591h-1.061A9.593,9.593,0,0,0,17374.371,15264.147Zm-25,0v23.287h20.25v-23.287a9.594,9.594,0,0,0-9.6-9.591h-1.055A9.591,9.591,0,0,0,17349.367,15264.147Zm-27.24,0v23.287h20.252v-23.287a9.593,9.593,0,0,0-9.6-9.591h-1.061A9.593,9.593,0,0,0,17322.127,15264.147Zm-25.115,0v23.287h20.246v-23.287a9.588,9.588,0,0,0-9.59-9.591h-1.061A9.591,9.591,0,0,0,17297.012,15264.147Zm-57.008,5.871v17.416h29.479v-17.416a14.739,14.739,0,0,0-29.479,0Zm344.758,3.076h17.211v-11.474h-17.211Zm-27.721,0h17.209v-11.474h-17.209Zm-27.723,0h17.211v-11.474h-17.211Zm-27.723,0h17.211v-11.474H17501.6Zm259.176-4.1h12.756v-14.339h-12.756Zm-17.85,0h12.756v-14.339h-12.756Zm-30.674,0H17725v-14.339h-12.752Zm-17.857,0h12.756v-14.339h-12.756Zm-31.885,0h12.756v-14.339h-12.756Zm-17.855,0h12.758v-14.339h-12.758Zm-458.566-2.239h9.229v-9.233h-9.229Zm-13.158,0h9.229v-9.233h-9.229Zm-17.023,0h9.229v-9.233h-9.229Zm-13.158,0h9.229v-9.233h-9.229Zm-18.3,0h9.232v-9.233h-9.232Zm-13.158,0h9.229v-9.233h-9.229Zm-36.156-.282h13.854v-11.979h-13.854Zm-31.861,0h13.852v-11.979h-13.852Zm-31.867,0h13.852v-11.979H17011.4Zm-41.682-.961h14.9v-7.468h-14.9Zm-27.5,0h14.906v-7.468h-14.906Zm-26.207,0h14.906v-7.468h-14.906Zm668.748-8.639h17.211v-10.485h-17.211Zm-27.721,0h17.209v-10.485h-17.209Zm-27.723,0h17.211v-10.485h-17.211Zm-27.723,0h17.211v-10.485H17501.6Zm-692.979-24.954v23.787h26.551v-23.787a13.275,13.275,0,0,0-26.551,0Zm161.105,23.228h14.9v-8.643h-14.9Zm-27.5,0h14.906v-8.643h-14.906Zm-26.207,0h14.906v-8.643h-14.906Zm270.07-1.386h9.229v-9.229h-9.229Zm-13.158,0h9.229v-9.229h-9.229Zm-17.023,0h9.229v-9.229h-9.229Zm-13.158,0h9.229v-9.229h-9.229Zm-18.3,0h9.232v-9.229h-9.232Zm-13.158,0h9.229v-9.229h-9.229Zm649.482-4.167h12.756v-14.34h-12.756Zm-17.85,0h12.756v-14.34h-12.756Zm-30.674,0H17725v-14.34h-12.752Zm-17.857,0h12.756v-14.34h-12.756Zm-31.885,0h12.756v-14.34h-12.756Zm-17.855,0h12.758v-14.34h-12.758Zm-569.518-8.071h13.854v-11.982h-13.854Zm-31.861,0h13.852v-11.982h-13.852Zm-31.867,0h13.852v-11.982H17011.4Zm94.648-3.836h94.5V15235h-94.5Zm393.371-4.748h104.723v-2.857h-104.723Zm-54.572-1.937h8.961v-9.895h-8.961Zm-13.727,0h10.105v-9.895h-10.105Zm-13.15,0h9.527v-9.895h-9.527Zm-63.7,0h8.961v-9.895h-8.961Zm-13.727,0h10.105v-9.895h-10.105Zm-13.15,0h9.533v-9.895h-9.533Zm-63.7,0h8.965v-9.895h-8.965Zm-13.723,0h10.105v-9.895h-10.105Zm-13.154,0h9.533v-9.895h-9.533Zm138.869-29.993v29.613h18.047v-29.613a9.023,9.023,0,0,0-18.047,0Zm-78.8,0v29.613h18.047v-29.613a9.023,9.023,0,0,0-18.047,0Zm-327.174,27.565h14.9v-7.467h-14.9Zm-27.5,0h14.906v-7.467h-14.906Zm-26.207,0h14.906v-7.467h-14.906Zm270.07-2.16h9.229v-9.232h-9.229Zm-13.158,0h9.229v-9.232h-9.229Zm-17.023,0h9.229v-9.232h-9.229Zm-13.158,0h9.229v-9.232h-9.229Zm-18.3,0h9.232v-9.232h-9.232Zm-13.158,0h9.229v-9.232h-9.229Zm649.482-7.158h12.756v-14.344h-12.756Zm-17.85,0h12.756v-14.344h-12.756Zm-30.674,0H17725v-14.344h-12.752Zm-17.857,0h12.756v-14.344h-12.756Zm-31.885,0h12.756v-14.344h-12.756Zm-17.855,0h12.758v-14.344h-12.758Zm-674.928-1.051h14.9v-8.639h-14.9Zm-27.5,0h14.906v-8.639h-14.906Zm-26.207,0h14.906v-8.639h-14.906Zm528.838-.72h8.961v-11.12h-8.961Zm-13.727,0h10.105v-11.12h-10.105Zm-13.15,0h9.527v-11.12h-9.527Zm-63.7,0h8.961v-11.12h-8.961Zm-13.727,0h10.105v-11.12h-10.105Zm-13.15,0h9.533v-11.12h-9.533Zm-63.7,0h8.965v-11.12h-8.965Zm-13.723,0h10.105v-11.12h-10.105Zm-13.154,0h9.533v-11.12h-9.533Zm-161.691-.917h13.854v-11.979h-13.854Zm-31.861,0h13.852v-11.979h-13.852Zm-31.867,0h13.852v-11.979H17011.4Zm573.357-2.7h17.211v-11.474h-17.211Zm-27.721,0h17.209v-11.474h-17.209Zm-27.723,0h17.211v-11.474h-17.211Zm-27.723,0h17.211v-11.474H17501.6Zm-315.512-.447h9.229v-9.229h-9.229Zm-13.158,0h9.229v-9.229h-9.229Zm-17.023,0h9.229v-9.229h-9.229Zm-13.158,0h9.229v-9.229h-9.229Zm-18.3,0h9.232v-9.229h-9.232Zm-13.158,0h9.229v-9.229h-9.229Zm-329.871-5.11H16852l-2.678-2.684h-67.906Zm663.434-5.567h8.961V15192.5h-8.961Zm-13.727,0h10.105V15192.5h-10.105Zm-13.15,0h9.527V15192.5h-9.527Zm-63.7,0h8.961V15192.5h-8.961Zm-13.727,0h10.105V15192.5h-10.105Zm-13.15,0h9.533V15192.5h-9.533Zm-63.7,0h8.965V15192.5h-8.965Zm-13.723,0h10.105V15192.5h-10.105Zm-13.154,0h9.533V15192.5h-9.533Zm523.947-2.889h12.756v-14.344h-12.756Zm-17.85,0h12.756v-14.344h-12.756Zm-30.674,0H17725v-14.344h-12.752Zm-17.857,0h12.756v-14.344h-12.756Zm-31.885,0h12.756v-14.344h-12.756Zm-17.855,0h12.758v-14.344h-12.758Zm-538.6-2.074h94.5v-2.687h-94.5Zm478.709-.134h17.211v-10.485h-17.211Zm-27.721,0h17.209v-10.485h-17.209Zm-27.723,0h17.211v-10.485h-17.211Zm-27.723,0h17.211v-10.485H17501.6Zm-531.873-4.387h14.9v-7.467h-14.9Zm-27.5,0h14.906v-7.467h-14.906Zm-26.207,0h14.906v-7.467h-14.906Zm159.119-1.646h13.854v-11.979h-13.854Zm-31.861,0h13.852v-11.979h-13.852Zm-31.867,0h13.852v-11.979H17011.4Zm406.57-8.651v4.766h35.838v-4.766a17.919,17.919,0,0,0-35.838,0Zm-90.576,0v4.766h35.838v-4.766a17.919,17.919,0,0,0-35.838,0Zm-90.574,0v4.766h35.842v-4.766a17.921,17.921,0,0,0-35.842,0Zm-50.74,4.323h9.229v-9.229h-9.229Zm-13.158,0h9.229v-9.229h-9.229Zm-17.023,0h9.229v-9.229h-9.229Zm-13.158,0h9.229v-9.229h-9.229Zm-18.3,0h9.232v-9.229h-9.232Zm-13.158,0h9.229v-9.229h-9.229Zm-298.168-21.932v21.677h17.545v-21.677l-9.033-6.447Zm156.6,17.541h14.9v-8.644h-14.9Zm-27.5,0h14.906v-8.644h-14.906Zm-26.207,0h14.906v-8.644h-14.906Zm583.41-5.656h104.723v-2.857h-104.723Zm-313.34-2.942h9.229v-9.229h-9.229Zm-13.158,0h9.229v-9.229h-9.229Zm-17.023,0h9.229v-9.229h-9.229Zm-13.158,0h9.229v-9.229h-9.229Zm-18.3,0h9.232v-9.229h-9.232Zm-13.158,0h9.229v-9.229h-9.229Zm649.482-5.271h12.756v-14.344h-12.756Zm-17.85,0h12.756v-14.344h-12.756Zm-30.674,0H17725v-14.344h-12.752Zm-17.857,0h12.756v-14.344h-12.756Zm-31.885,0h12.756v-14.344h-12.756Zm-17.855,0h12.758v-14.344h-12.758Zm-569.518-2.361h13.854v-11.982h-13.854Zm-31.861,0h13.852v-11.982h-13.852Zm-31.867,0h13.852v-11.982H17011.4Zm573.357-4.873h17.211v-11.474h-17.211Zm-27.721,0h17.209v-11.474h-17.209Zm-27.723,0h17.211v-11.474h-17.211Zm-27.723,0h17.211v-11.474H17501.6Zm-559.672-6.081h16.791v-8.6h-16.791Zm818.848-6.09h12.756v-14.34h-12.756Zm-17.85,0h12.756v-14.34h-12.756Zm-30.674,0H17725v-14.34h-12.752Zm-17.857,0h12.756v-14.34h-12.756Zm-31.885,0h12.756v-14.34h-12.756Zm-17.855,0h12.758v-14.34h-12.758Zm-59.889-4.051h17.211v-10.481h-17.211Zm-27.721,0h17.209v-10.481h-17.209Zm-27.723,0h17.211v-10.481h-17.211Zm-27.723,0h17.211v-10.481H17501.6Zm-559.672-2.62v.205h16.791v-.205a8.4,8.4,0,0,0-16.791,0Zm202.229-6.582-2.07,5.616h22.441l-2.07-5.616a9.751,9.751,0,0,0-18.3,0Zm305.135,4.02h13.623v-12.4h-13.623Zm-20.586,0h13.619v-12.4H17428.7Zm-19.83,0h13.623v-12.4h-13.623Zm-70.365,0h13.625v-12.4h-13.625Zm-70.369,0h13.629v-12.4h-13.629Zm-20.586,0h13.625v-12.4h-13.625Zm-19.826,0h13.625v-12.4h-13.625Zm-175.426-2.776h10.561v-10.566H17052.3Zm-14.773,0h10.566v-10.566h-10.566Zm411.762-13.794v.08h13.623v-.08a6.812,6.812,0,1,0-13.623,0Zm-20.586,0v.08h13.619v-.08a6.81,6.81,0,1,0-13.619,0Zm-19.83,0v.08h13.623v-.08a6.812,6.812,0,1,0-13.623,0Zm-70.365,0v.08h13.625v-.08a6.813,6.813,0,1,0-13.625,0Zm-70.369,0v.08h13.629v-.08a6.814,6.814,0,0,0-13.629,0Zm-20.586,0v.08h13.625v-.08a6.813,6.813,0,1,0-13.625,0Zm-19.826,0v.08h13.625v-.08a6.813,6.813,0,1,0-13.625,0Zm-175.426-.39h10.561v-10.565H17052.3Zm-14.773,0h10.566v-10.565h-10.566Zm504.434-23.827v13.463h19.646V15099.6a9.823,9.823,0,1,0-19.646,0Zm126.422,11.826h85.723l-42.861-32.582Zm-263.883-11.455h62.785v-2.795H17404.5Zm-181.146,0h62.787v-2.795h-62.787Zm202.76-32.341v26.112h19.639v-26.112l-9.912-6.863Zm-181.145,0v26.112h19.639v-26.112l-9.918-6.863Zm98.436,32.6v-13.853h3.836v13.853Zm377.578-47.838v-6.542h18.564v6.542Zm-41.852,0v-6.542h18.57v6.542Zm-936.328-67.473c-13.553,0-14.756-20.187-1.266-21.493.129-.014.26-.026.389-.036a28.336,28.336,0,0,1,30.865-18.086,614.845,614.845,0,0,0,67.512-7.279,32.31,32.31,0,0,1,31.412,24.829,31.889,31.889,0,0,1,12.559.952c11.961,3.345,9.328,21.113-3.094,21.113Zm891.066-.514c-14.09,0-15.338-20.984-1.314-22.339.133-.018.268-.026.4-.04a29.407,29.407,0,0,1,32.076-18.793,641.054,641.054,0,0,0,70.154-7.565,33.36,33.36,0,0,0,36.611,25.549,33.672,33.672,0,0,1,9.082,1.238c12.43,3.479,9.693,21.95-3.221,21.95Zm-480.809-145.295c-16.248,0-17.687-24.208-1.516-25.772.156-.014.313-.031.465-.045a34.291,34.291,0,0,1,32.023-22.079,33.933,33.933,0,0,1,4.982.4,738.393,738.393,0,0,0,80.939-8.728,38.47,38.47,0,0,0,42.23,29.47,38.983,38.983,0,0,1,10.48,1.431c14.34,4.016,11.178,25.321-3.711,25.321Z" transform="translate(-16723.998 -14766.376)"/></svg>