<svg xmlns="http://www.w3.org/2000/svg" xmlns:xlink="http://www.w3.org/1999/xlink" width="302.56" height="286.389" viewBox="0 0 302.56 286.389"><defs><style>.a,.b{fill:none;}.a,.c{clip-rule:evenodd;}.c,.d{fill:#4291b4;}.e{clip-path:url(#a);}.f{clip-path:url(#b);}.g{fill:#274166;}.h{clip-path:url(#c);}.i{fill:#273e66;}.j{clip-path:url(#e);}.k{clip-path:url(#g);}.l{fill:#ffd264;}.m{fill:#ffb300;}.n{clip-path:url(#i);}.o{clip-path:url(#j);}</style><clipPath id="a"><path class="a" d="M455.452-238l-1.939,41.528H249V-238H455.452" transform="translate(-249 238)"/></clipPath><clipPath id="b"><path class="b" d="M-781,277.865H927.571V-930H-781Z" transform="translate(781 930)"/></clipPath><clipPath id="c"><path class="a" d="M511.56-196.472H209L257.1-238H463.5l.854.734,47.2,40.794" transform="translate(-209 238)"/></clipPath><clipPath id="e"><path class="a" d="M239-2.083h34.409V-27H239Z" transform="translate(-239 27)"/></clipPath><clipPath id="g"><path class="a" d="M398-2.083h34.409V-27H398Z" transform="translate(-398 27)"/></clipPath><clipPath id="i"><path class="c" d="M209-204H511.56L488.85,22.623H229.369L209-204" transform="translate(-209 204)"/></clipPath><clipPath id="j"><path class="d" d="M-781,277.865H927.571V-930H-781Z" transform="translate(781 930)"/></clipPath></defs><g transform="translate(-1540.44 -444.611)"><g class="e" transform="translate(1587.901 455.73)"><g class="f" transform="translate(-1222.103 -821.063)"><path class="g" d="M244-243H462.317v53.393H244Z" transform="translate(972.171 1058.131)"/></g></g><g transform="translate(400.44 617)"><g class="h" transform="translate(1140 -161.27)"><g class="f" transform="translate(-1174.643 -821.063)"><path class="i" d="M204-243H518.425v53.393H204Z" transform="translate(964.71 1058.131)"/></g></g><g class="j" transform="translate(1175.595 89.083)"><g class="f" transform="translate(-1210.238 -1071.417)"><path class="g" d="M234-32h46.274V4.782H234Z" transform="translate(970.306 1097.484)"/></g></g><g class="k" transform="translate(1364.25 89.083)"><g class="f" transform="translate(-1398.893 -1071.417)"><path class="g" d="M393-32h46.274V4.782H393Z" transform="translate(999.96 1097.484)"/></g></g><g transform="translate(11211.56 -6218.389)"><path class="l" d="M189.368,38.181,179.537,24.42a7,7,0,0,1-.645-7.345,6.84,6.84,0,0,1,3.838-3.189,9.731,9.731,0,0,1,6.562.143c3.664,1.307,11.1,3.725,15.963,3.725h7.681a3.614,3.614,0,0,1,3.648,2.96c.386,2.776-1.455,7.978-11.329,17.468Z" transform="translate(-10187.586 6034.619)"/><path class="l" d="M132.684,188.416c0-4.369-2.746-7.366-5.218-9.177a9.219,9.219,0,0,1-3.861-7.411V143.02c-2.388-24.26-27.283-39.517-43.3-46.9a32.146,32.146,0,0,0-26.9,0C37.4,103.5,12.5,118.76,10.115,143.02v28.808a9.219,9.219,0,0,1-3.861,7.411c-2.472,1.811-5.218,4.807-5.218,9.177,0,0-1.419,9.079,13.619,9.079H119.065c15.038,0,13.619-9.079,13.619-9.079" transform="translate(-10056 5975.343)"/></g><g transform="translate(11301.56 -6220.389)"><path class="m" d="M189.368,38.181,179.537,24.42a7,7,0,0,1-.645-7.345,6.84,6.84,0,0,1,3.838-3.189,9.731,9.731,0,0,1,6.562.143c3.664,1.307,11.1,3.725,15.963,3.725h7.681a3.614,3.614,0,0,1,3.648,2.96c.386,2.776-1.455,7.978-11.329,17.468Z" transform="translate(-10187.586 6034.619)"/><path class="m" d="M132.684,188.416c0-4.369-2.746-7.366-5.218-9.177a9.219,9.219,0,0,1-3.861-7.411V143.02c-2.388-24.26-27.283-39.517-43.3-46.9a32.146,32.146,0,0,0-26.9,0C37.4,103.5,12.5,118.76,10.115,143.02v28.808a9.219,9.219,0,0,1-3.861,7.411c-2.472,1.811-5.218,4.807-5.218,9.177,0,0-1.419,9.079,13.619,9.079H119.065c15.038,0,13.619-9.079,13.619-9.079" transform="translate(-10056 5975.343)"/></g><g class="n" transform="translate(1140 -120.929)"><g class="o" transform="translate(-1174.643 -861.405)"><path class="d" d="M204-209H518.425V29.488H204Z" transform="translate(964.71 1064.472)"/></g></g></g></g></svg>