<svg xmlns="http://www.w3.org/2000/svg" xmlns:xlink="http://www.w3.org/1999/xlink" width="701" height="427.071" viewBox="0 0 701 427.071"><defs><style>.a,.ap,.d,.i,.j,.k,.l,.m{fill:none;}.b,.c{fill:#4291b4;}.b,.d,.e,.g,.i,.k,.l{clip-rule:evenodd;}.e,.f{fill:#fff6dd;}.g,.h{fill:#fff;}.i,.j{stroke:#707070;stroke-width:16px;}.ap,.i,.j,.k{stroke-linecap:round;stroke-linejoin:round;}.k,.l,.m{stroke:#e4ac2c;}.n{clip-path:url(#a);}.o{fill:#515151;}.p{clip-path:url(#b);}.q{clip-path:url(#c);}.r{clip-path:url(#d);}.s{clip-path:url(#e);}.t{fill:#16383b;}.u{clip-path:url(#f);}.v{clip-path:url(#h);}.w{fill:#fffefe;}.x{clip-path:url(#j);}.y{fill:#d0ebf3;}.z{clip-path:url(#l);}.aa{clip-path:url(#m);}.ab{clip-path:url(#n);}.ac{fill:#d7eded;}.ad{clip-path:url(#p);}.ae{clip-path:url(#r);}.af{clip-path:url(#t);}.ag{clip-path:url(#v);}.ah{clip-path:url(#x);}.ai{clip-path:url(#z);}.aj{clip-path:url(#aa);}.ak{clip-path:url(#ab);}.al{clip-path:url(#ad);}.am{clip-path:url(#af);}.an{clip-path:url(#ah);}.ao{clip-path:url(#ai);}.aq{clip-path:url(#aj);}.ar{clip-path:url(#al);}.as{clip-path:url(#am);}.at{clip-path:url(#an);}.au,.av{stroke:none;}.av{fill:#707070;}</style><clipPath id="a"><path class="a" d="M20,24.434H438.443V-64H20Z" transform="translate(-20 64)"/></clipPath><clipPath id="b"><path class="b" d="M354.254-175l88.38,163.931V152.852H392.358a67.971,67.971,0,1,0-135.941,0H214V-175H354.254" transform="translate(-214 175)"/></clipPath><clipPath id="c"><path class="c" d="M-37,1235.689H3068.969V-973H-37Z" transform="translate(37 973)"/></clipPath><clipPath id="d"><path class="d" d="M225-81.539a6.773,6.773,0,0,0,7.024,6.48h37.707a6.789,6.789,0,0,0,7.035-6.48A6.761,6.761,0,0,0,269.731-88H232.024A6.745,6.745,0,0,0,225-81.539" transform="translate(-225 88)"/></clipPath><clipPath id="e"><path class="a" d="M-37,1235.689H3068.969V-973H-37Z" transform="translate(37 973)"/></clipPath><clipPath id="f"><path class="d" d="M360.664-19.95A68.1,68.1,0,0,0,301.259-55C263.564-55,233-24.095,233,14.022H414.977a16.55,16.55,0,0,0,16.46-16.633V-19.95H360.664" transform="translate(-233 55)"/></clipPath><clipPath id="h"><path class="d" d="M252-7.97a28.05,28.05,0,0,0,28.04,28.05V-36A28.032,28.032,0,0,0,252-7.97" transform="translate(-252 36)"/></clipPath><clipPath id="j"><path class="d" d="M265-36V20.08A28.048,28.048,0,0,0,293.04-7.97,28.031,28.031,0,0,0,265-36" transform="translate(-265 36)"/></clipPath><clipPath id="l"><path class="e" d="M311-47.108A16.711,16.711,0,0,1,327.518-64h2.894v34.511H311V-47.108" transform="translate(-311 64)"/></clipPath><clipPath id="m"><path class="f" d="M-37,1235.689H3068.969V-973H-37Z" transform="translate(37 973)"/></clipPath><clipPath id="n"><path class="d" d="M39.412-31.076A16.744,16.744,0,0,0,22.893-48H20v34.511H39.412V-31.076" transform="translate(-20 48)"/></clipPath><clipPath id="p"><path class="d" d="M151.218,3.6A49.609,49.609,0,1,1,101.62-46a49.613,49.613,0,0,1,49.6,49.6" transform="translate(-52 46)"/></clipPath><clipPath id="r"><path class="d" d="M343.218,3.6A49.609,49.609,0,1,1,293.62-46a49.613,49.613,0,0,1,49.6,49.6" transform="translate(-244 46)"/></clipPath><clipPath id="t"><path class="d" d="M62-7.97A28.043,28.043,0,0,0,90.04,20.08V-36A28.025,28.025,0,0,0,62-7.97" transform="translate(-62 36)"/></clipPath><clipPath id="v"><path class="e" d="M254-7.97a28.043,28.043,0,0,0,28.04,28.05V-36A28.025,28.025,0,0,0,254-7.97" transform="translate(-254 36)"/></clipPath><clipPath id="x"><path class="d" d="M75-36V20.08A28.062,28.062,0,0,0,103.04-7.97,28.044,28.044,0,0,0,75-36" transform="translate(-75 36)"/></clipPath><clipPath id="z"><path class="g" d="M267-36V20.08A28.062,28.062,0,0,0,295.04-7.97,28.044,28.044,0,0,0,267-36" transform="translate(-267 36)"/></clipPath><clipPath id="aa"><path class="h" d="M-37,1235.689H3068.969V-973H-37Z" transform="translate(37 973)"/></clipPath><clipPath id="ab"><path class="e" d="M225-158V-30.742h99.218L255.109-158H225" transform="translate(-225 158)"/></clipPath><clipPath id="ad"><path class="d" d="M303.865-158H239L307.864-30.742h64.865L303.865-158" transform="translate(-239 158)"/></clipPath><clipPath id="af"><path class="b" d="M152.27-198,0-46.143V110.44H461.582V-198H152.27" transform="translate(0 198)"/></clipPath><clipPath id="ah"><path class="i" d="M388.8-84H32.968A12.943,12.943,0,0,0,20-71.064,12.952,12.952,0,0,0,32.968-58.117H388.8a12.961,12.961,0,0,0,12.978-12.947A12.952,12.952,0,0,0,388.8-84" transform="translate(-20 84)"/></clipPath><clipPath id="ai"><path class="j" d="M-37,1235.689H3068.969V-973H-37Z" transform="translate(37 973)"/></clipPath><clipPath id="aj"><path class="i" d="M388.8-108H32.968A12.949,12.949,0,0,0,20-95.058,12.956,12.956,0,0,0,32.968-82.117H388.8a12.965,12.965,0,0,0,12.978-12.942A12.958,12.958,0,0,0,388.8-108" transform="translate(-20 108)"/></clipPath><clipPath id="al"><path class="k" d="M76.941-181A12.934,12.934,0,0,0,64-168.074a12.954,12.954,0,0,0,12.941,12.957H337.919a12.956,12.956,0,0,0,12.952-12.957q0-7.139-12.952-12.926Z" transform="translate(-64 181)"/></clipPath><clipPath id="am"><path class="l" d="M68.314-182H346.557a4.314,4.314,0,0,1,4.314,4.314v19.412a4.314,4.314,0,0,1-4.314,4.314H68.314A4.314,4.314,0,0,1,64-158.274v-19.412A4.314,4.314,0,0,1,68.314-182Z" transform="translate(-64 182)"/></clipPath><clipPath id="an"><path class="m" d="M-37,1235.689H3068.969V-973H-37Z" transform="translate(37 973)"/></clipPath></defs><g transform="translate(-195 -410)"><g class="n" transform="translate(238.138 699.028)"><path class="o" d="M15-69H455.012V41H15Z" transform="translate(-25.785 58.215)"/></g><g class="p" transform="translate(656.582 459.609)"><g class="q" transform="translate(-541.388 -1721.225)"><path class="c" d="M209-180H459.2V169.422H209Z" transform="translate(321.603 1890.44)"/></g></g><g class="r" transform="translate(680.308 647.262)"><g class="s" transform="translate(-565.114 -1908.877)"><path class="t" d="M220-93h73.335v34.511H220Z" transform="translate(334.329 1991.092)"/></g></g><g class="u" transform="translate(697.563 718.44)"><g class="s" transform="translate(-582.369 -1980.055)"><path class="o" d="M228-60H448.006V30.591H228Z" transform="translate(343.585 2029.271)"/></g></g><g class="v" transform="translate(738.545 759.422)"><g class="s" transform="translate(-623.351 -2021.037)"><path class="w" d="M247-41h49.609V36.649H247Z" transform="translate(365.566 2051.252)"/></g></g><g class="x" transform="translate(766.585 759.422)"><g class="s" transform="translate(-651.391 -2021.037)"><path class="y" d="M260-41h49.609V36.649H260Z" transform="translate(380.606 2051.252)"/></g></g><g class="z" transform="translate(865.803 699.028)"><g class="aa" transform="translate(-750.609 -1960.643)"><path class="f" d="M306-69h40.982v56.08H306Z" transform="translate(433.825 2018.859)"/></g></g><g class="ab" transform="translate(238.138 733.538)"><g class="s" transform="translate(-122.945 -1995.154)"><path class="ac" d="M15-53H55.982V3.08H15Z" transform="translate(97.16 2037.369)"/></g></g><g class="ad" transform="translate(307.16 737.852)"><g class="s" transform="translate(-191.966 -1999.468)"><path class="o" d="M47-51H167.788V69.788H47Z" transform="translate(134.182 2039.683)"/></g></g><g class="ae" transform="translate(721.289 737.852)"><g class="s" transform="translate(-606.095 -1999.468)"><path class="o" d="M239-51H359.788V69.788H239Z" transform="translate(356.311 2039.683)"/></g></g><g class="af" transform="translate(328.729 759.422)"><g class="s" transform="translate(-213.535 -2021.037)"><path class="w" d="M57-41h49.609V36.649H57Z" transform="translate(145.751 2051.252)"/></g></g><g class="ag" transform="translate(742.858 759.422)"><g class="aa" transform="translate(-627.665 -2021.037)"><path class="f" d="M249-41h49.609V36.649H249Z" transform="translate(367.88 2051.252)"/></g></g><g class="ah" transform="translate(356.769 759.422)"><g class="s" transform="translate(-241.575 -2021.037)"><path class="ac" d="M70-41h49.609V36.649H70Z" transform="translate(160.791 2051.252)"/></g></g><g class="ai" transform="translate(770.898 759.422)"><g class="aj" transform="translate(-655.705 -2021.037)"><path class="h" d="M262-41h49.609V36.649H262Z" transform="translate(382.92 2051.252)"/></g></g><g class="ak" transform="translate(681.308 496.277)"><g class="aa" transform="translate(-565.114 -1757.892)"><path class="f" d="M220-163H340.788V-14.172H220Z" transform="translate(334.329 1910.108)"/></g></g><g class="al" transform="translate(710.505 496.277)"><g class="s" transform="translate(-595.311 -1757.892)"><path class="w" d="M234-163H389.3V-14.172H234Z" transform="translate(350.526 1910.108)"/></g></g><g class="am" transform="translate(195 410)"><g class="q" transform="translate(-79.806 -1671.615)"><path class="c" d="M-5-203H478.151V127.009H-5Z" transform="translate(74.022 1863.831)"/></g></g><g class="an" transform="translate(238.138 655.889)"><g class="ao" transform="translate(-122.945 -1917.505)"><g class="ap" transform="translate(97.16 1995.72)"><path class="au" d="M15-89H418.345v47.452H15Z"/><path class="av" d="M 14.99996948242188 -88.99996948242188 L 14.99996948242188 -41.54770660400391 L 418.3445739746094 -41.54770660400391 L 418.3445739746094 -88.99996948242188 L 14.99996948242188 -88.99996948242188 M 14.99996948242188 -104.9999771118164 L 418.3445739746094 -104.9999771118164 C 427.1810913085938 -104.9999771118164 434.3445739746094 -97.83650970458984 434.3445739746094 -88.99996948242188 L 434.3445739746094 -41.54770660400391 C 434.3445739746094 -32.71117401123047 427.1810913085938 -25.54770660400391 418.3445739746094 -25.54770660400391 L 14.99996948242188 -25.54770660400391 C 6.163421630859375 -25.54770660400391 -1.000030517578125 -32.71117401123047 -1.000030517578125 -41.54770660400391 L -1.000030517578125 -88.99996948242188 C -1.000030517578125 -97.83650970458984 6.163421630859375 -104.9999771118164 14.99996948242188 -104.9999771118164 Z"/></g></g></g><g class="aq" transform="translate(238.138 604.123)"><g class="ao" transform="translate(-122.945 -1865.738)"><g class="ap" transform="translate(97.16 1967.954)"><path class="au" d="M15-113H418.345v47.452H15Z"/><path class="av" d="M 14.99996948242188 -112.9999694824219 L 14.99996948242188 -65.54769897460938 L 418.3445739746094 -65.54769897460938 L 418.3445739746094 -112.9999694824219 L 14.99996948242188 -112.9999694824219 M 14.99996948242188 -128.9999694824219 L 418.3445739746094 -128.9999694824219 C 427.1810913085938 -128.9999694824219 434.3445739746094 -121.8365020751953 434.3445739746094 -112.9999694824219 L 434.3445739746094 -65.54769897460938 C 434.3445739746094 -56.71116638183594 427.1810913085938 -49.54769897460938 418.3445739746094 -49.54769897460938 L 14.99996948242188 -49.54769897460938 C 6.163421630859375 -49.54769897460938 -1.000030517578125 -56.71116638183594 -1.000030517578125 -65.54769897460938 L -1.000030517578125 -112.9999694824219 C -1.000030517578125 -121.8365020751953 6.163421630859375 -128.9999694824219 14.99996948242188 -128.9999694824219 Z"/></g></g></g><g class="as" transform="translate(333.043 444.511)"><g class="at" transform="translate(-217.849 -1706.126)"><path class="m" d="M59-187H367.44v49.609H59Z" transform="translate(148.065 1882.342)"/></g></g></g></svg>