<svg xmlns="http://www.w3.org/2000/svg" xmlns:xlink="http://www.w3.org/1999/xlink" width="516.595" height="322.215" viewBox="0 0 516.595 322.215"><defs><style>.a,.b{fill:#fff6dd;}.a,.c,.e,.g,.i,.k,.m,.o{clip-rule:evenodd;}.c,.d{fill:#273e66;}.e,.f{fill:#eb950f;}.g,.h{fill:#eb960e;}.i,.j{fill:#fff;}.k{fill:#273d66;}.l{fill:none;}.m,.n{fill:#4291b4;}.o,.p{fill:#3b96b4;}.q{clip-path:url(#a);}.r{clip-path:url(#b);}.s{clip-path:url(#c);}.t{clip-path:url(#e);}.u{clip-path:url(#g);}.v{clip-path:url(#i);}.w{clip-path:url(#k);}.x{clip-path:url(#m);}.y{clip-path:url(#o);}.z{clip-path:url(#q);}.aa{clip-path:url(#r);}.ab{clip-path:url(#s);}.ac{clip-path:url(#t);}.ad{clip-path:url(#u);}.ae{clip-path:url(#v);}.af{clip-path:url(#w);}.ag{clip-path:url(#x);}.ah{clip-path:url(#y);}.ai{clip-path:url(#aa);}.aj{clip-path:url(#ac);}.ak{clip-path:url(#ae);}.al{clip-path:url(#ag);}.am{clip-path:url(#ah);}.an{clip-path:url(#ai);}.ao{clip-path:url(#ak);}.ap{clip-path:url(#am);}.aq{clip-path:url(#ao);}.ar{clip-path:url(#aq);}.as{clip-path:url(#as);}.at{clip-path:url(#au);}.au{clip-path:url(#av);}.av{clip-path:url(#aw);}.aw{clip-path:url(#ax);}.ax{clip-path:url(#ay);}.ay{clip-path:url(#ba);}.az{clip-path:url(#bc);}</style><clipPath id="a"><path class="a" d="M550.991-194.408l-11.7-83.352a4.726,4.726,0,0,0-5.177-4.2l-42.239,5.86a4.707,4.707,0,0,0-3.822,5.45l11.7,83.352a4.725,4.725,0,0,0,5.179,4.2l42.237-5.858a4.707,4.707,0,0,0,3.822-5.45" transform="translate(-488 282)"/></clipPath><clipPath id="b"><path class="b" d="M-655,124.346H605.843V-767H-655Z" transform="translate(655 767)"/></clipPath><clipPath id="c"><path class="a" d="M452.295-152.8l31.871-77.765a4.678,4.678,0,0,0-2.363-6.2l-39.489-15.929a4.744,4.744,0,0,0-6.055,2.8L404.388-172.12a4.675,4.675,0,0,0,2.363,6.2l39.489,15.931a4.744,4.744,0,0,0,6.055-2.8" transform="translate(-404 253)"/></clipPath><clipPath id="e"><path class="a" d="M512.659-222.654l-.007.005a1.776,1.776,0,0,0-.239,2.513l.6.723-.266.217a1.326,1.326,0,0,0-.179,1.879l2.732,3.272a1.354,1.354,0,0,0,1.9.176l.266-.219.6.725a1.813,1.813,0,0,0,2.535.235l.007,0a2.255,2.255,0,0,0,2.5.083l.387.463,1.532-1.258-.346-.416,1.532-1.256.346.416,1.534-1.258-.346-.416,1.532-1.256.348.415,1.532-1.258-.75-.9.674-.549a18.281,18.281,0,0,1,16.146-3.409,25.516,25.516,0,0,0,22.183-5.006,24.9,24.9,0,0,0,3.346-35.22,25.942,25.942,0,0,0-1.952-2.089,25.5,25.5,0,0,0-30.98-3.1,25.06,25.06,0,0,0-11.682,22.824,17.656,17.656,0,0,1-6.406,14.806l-.674.555-.4-.481-.348-.415-1.532,1.256.346.415-1.532,1.26-.346-.416-1.534,1.256.348.416-1.534,1.258-.346-.415-1.534,1.256.387.463a2.2,2.2,0,0,0-.384,2.452" transform="translate(-512 273)"/></clipPath><clipPath id="g"><path class="a" d="M471.043-272.526l-2.684,1.927-2.3-3.236a2.754,2.754,0,0,0-3.856-.647l-11.02,7.919a2.793,2.793,0,0,0-.641,3.879l2.3,3.236-2.684,1.929a2.789,2.789,0,0,0-.643,3.879L501.9-179.851a2.754,2.754,0,0,0,3.858.647l20.882-15.008a2.793,2.793,0,0,0,.644-3.881L474.9-271.88a2.752,2.752,0,0,0-3.856-.647" transform="translate(-449 275)"/></clipPath><clipPath id="i"><path class="a" d="M156.355-240.581l-5.1-2.857,5.17-9.263a3.281,3.281,0,0,0-1.259-4.46l-6.659-3.728,17.3-35.282a1.27,1.27,0,0,0-.519-1.668,1.265,1.265,0,0,0-1.691.431L142.641-264.17l-6.656-3.728a3.271,3.271,0,0,0-4.455,1.261l-5.17,9.263-5.1-2.857a3.269,3.269,0,0,0-4.451,1.262l-35.389,63.4a3.281,3.281,0,0,0,1.26,4.46l35.1,19.649a3.269,3.269,0,0,0,4.453-1.261l35.389-63.4a3.284,3.284,0,0,0-1.26-4.462" transform="translate(-81 298)"/></clipPath><clipPath id="k"><path class="a" d="M38.461-200.448l5.647,1.428-2.585,10.245a3.263,3.263,0,0,0,2.362,3.963l7.367,1.864-7.539,38.4a1.265,1.265,0,0,0,.931,1.471,1.264,1.264,0,0,0,1.514-.853l11.58-37.38,7.368,1.862a3.259,3.259,0,0,0,3.957-2.367l2.585-10.245,5.647,1.428a3.261,3.261,0,0,0,3.959-2.363l17.689-70.125a3.263,3.263,0,0,0-2.36-3.963L57.748-276.9a3.26,3.26,0,0,0-3.959,2.365L36.1-204.411a3.264,3.264,0,0,0,2.361,3.963" transform="translate(-36 277)"/></clipPath><clipPath id="m"><path class="a" d="M75.464-168.583l6.434-5.365,1.76,2.1a1.508,1.508,0,0,0,2.12.19l4.55-3.793a1.5,1.5,0,0,0,.189-2.116l-1.76-2.1,6.432-5.363a2.758,2.758,0,0,0,.347-3.89L37.62-258.009a2.772,2.772,0,0,0-3.9-.348L13.994-241.908a2.755,2.755,0,0,0-.349,3.89l57.918,69.088a2.774,2.774,0,0,0,3.9.346" transform="translate(-13 259)"/></clipPath><clipPath id="o"><path class="a" d="M383.264-240.634l8.295,1.586-.522,2.7a1.509,1.509,0,0,0,1.2,1.766l5.865,1.121a1.517,1.517,0,0,0,1.777-1.2l.522-2.7,8.291,1.584a2.788,2.788,0,0,0,3.265-2.2l17.148-88.866a2.777,2.777,0,0,0-2.211-3.249l-25.432-4.859a2.789,2.789,0,0,0-3.264,2.2l-17.15,88.864a2.777,2.777,0,0,0,2.213,3.249" transform="translate(-381 335)"/></clipPath><clipPath id="q"><path class="c" d="M566.988-226l-1.137,10.041L546.126-42.764a16.53,16.53,0,0,1-16.437,14.646H435.3a16.529,16.529,0,0,1-16.437-14.646L399.137-215.959,398-226H566.988" transform="translate(-398 226)"/></clipPath><clipPath id="r"><path class="d" d="M-655,124.346H605.843V-767H-655Z" transform="translate(655 767)"/></clipPath><clipPath id="s"><path class="e" d="M565.851-215.369H399.137L398-225H566.988l-1.137,9.631" transform="translate(-398 225)"/></clipPath><clipPath id="t"><path class="f" d="M-655,124.346H605.843V-767H-655Z" transform="translate(655 767)"/></clipPath><clipPath id="u"><path class="g" d="M569.36-219.5H392.511c-1.94,0-3.511-2.35-3.511-5.251S390.571-230,392.511-230H569.36c1.942,0,3.513,2.35,3.513,5.251S571.3-219.5,569.36-219.5" transform="translate(-389 230)"/></clipPath><clipPath id="v"><path class="h" d="M-655,569.413H605.843V-767H-655Z" transform="translate(655 767)"/></clipPath><clipPath id="w"><path class="i" d="M497-194.408,493.5-52.653,490-194.408A3.508,3.508,0,0,1,493.417-198,3.506,3.506,0,0,1,497-194.582v.174" transform="translate(-490 198.001)"/></clipPath><clipPath id="x"><path class="j" d="M-655,124.346H605.843V-767H-655Z" transform="translate(655 767)"/></clipPath><clipPath id="y"><path class="i" d="M549.23-194.034,530-52.653l12.086-142.132a3.568,3.568,0,0,1,3.88-3.2,3.532,3.532,0,0,1,3.285,3.783l-.02.171" transform="translate(-530 198)"/></clipPath><clipPath id="aa"><path class="i" d="M444.178-194.784,456.263-52.653,437.032-194.034a3.521,3.521,0,0,1,3.09-3.935,3.579,3.579,0,0,1,4.036,3.014l.02.171" transform="translate(-437 198)"/></clipPath><clipPath id="ac"><path class="a" d="M400.6-328.962l-83.29,10.105a4.705,4.705,0,0,0-4.28,5.076l5.07,42.129a4.693,4.693,0,0,0,5.361,3.9l83.292-10.105a4.7,4.7,0,0,0,4.282-5.074l-5.07-42.131a4.7,4.7,0,0,0-5.364-3.9" transform="translate(-313 329)"/></clipPath><clipPath id="ae"><path class="c" d="M177.988-226l-1.137,10.041L157.124-42.764a16.529,16.529,0,0,1-16.437,14.646H46.3A16.53,16.53,0,0,1,29.862-42.764L10.137-215.959,9-226H177.988" transform="translate(-9 226)"/></clipPath><clipPath id="ag"><path class="k" d="M176.851-213.577H10.137L9-225H177.988l-1.137,11.423" transform="translate(-9 223.208)"/></clipPath><clipPath id="ah"><path class="l" d="M-655,124.346H605.843V-767H-655Z" transform="translate(655 767)"/></clipPath><clipPath id="ai"><path class="i" d="M108-194.408,104.5-52.653,101-194.408A3.506,3.506,0,0,1,104.417-198,3.506,3.506,0,0,1,108-194.582v.174" transform="translate(-101 198.001)"/></clipPath><clipPath id="ak"><path class="i" d="M160.23-194.034,141-52.653l12.084-142.132a3.568,3.568,0,0,1,3.88-3.2,3.532,3.532,0,0,1,3.287,3.783l-.02.171" transform="translate(-141 198)"/></clipPath><clipPath id="am"><path class="i" d="M55.176-194.784,67.263-52.653,48.032-194.034a3.521,3.521,0,0,1,3.09-3.935,3.579,3.579,0,0,1,4.036,3.014l.018.171" transform="translate(-48 198)"/></clipPath><clipPath id="ao"><path class="a" d="M323.981-280.441,280-299.709,309.566-368l43.983,19.268-29.568,68.291" transform="translate(-280 368)"/></clipPath><clipPath id="aq"><path class="a" d="M289.874-294.461,233.632-357.3a4.7,4.7,0,0,0-6.622-.61l-31.584,28.395a4.727,4.727,0,0,0-.11,6.663l56.241,62.834a4.7,4.7,0,0,0,6.62.611l31.586-28.4a4.728,4.728,0,0,0,.11-6.663" transform="translate(-194 359)"/></clipPath><clipPath id="as"><path class="a" d="M276.478-339.512l-8.218,1.467-.478-2.708a1.5,1.5,0,0,0-1.738-1.223l-5.811,1.038a1.507,1.507,0,0,0-1.214,1.749l.476,2.708-8.218,1.467a2.772,2.772,0,0,0-2.234,3.216l15.69,89.077a2.759,2.759,0,0,0,3.2,2.247l25.2-4.5a2.772,2.772,0,0,0,2.234-3.214l-15.688-89.077a2.761,2.761,0,0,0-3.2-2.249" transform="translate(-249 342)"/></clipPath><clipPath id="au"><path class="m" d="M406.9-302l-1.519,13.415L379.013-57.146a22.1,22.1,0,0,1-21.974,19.573H230.864a22.1,22.1,0,0,1-21.976-19.573L182.521-288.585,181-302H406.9" transform="translate(-181 302)"/></clipPath><clipPath id="av"><path class="n" d="M-655,124.346H605.843V-767H-655Z" transform="translate(655 767)"/></clipPath><clipPath id="aw"><path class="o" d="M410.339-297.369H173.7a4.758,4.758,0,0,1-4.7-4.815A4.758,4.758,0,0,1,173.7-307H410.339a4.758,4.758,0,0,1,4.7,4.817,4.758,4.758,0,0,1-4.7,4.815" transform="translate(-169 307)"/></clipPath><clipPath id="ax"><path class="p" d="M-655,124.346H605.843V-767H-655Z" transform="translate(655 767)"/></clipPath><clipPath id="ay"><path class="i" d="M313.631-260.176,308.817-69.745,304-260.176A4.759,4.759,0,0,1,308.7-265a4.773,4.773,0,0,1,4.934,4.592v.233" transform="translate(-304 265.002)"/></clipPath><clipPath id="ba"><path class="i" d="M382.35-259.672,357-69.744,372.931-260.68a4.729,4.729,0,0,1,5.113-4.3,4.718,4.718,0,0,1,4.331,5.081l-.025.231" transform="translate(-357 265)"/></clipPath><clipPath id="bc"><path class="i" d="M242.461-260.68,258.392-69.744l-25.35-189.927a4.713,4.713,0,0,1,4.075-5.287,4.731,4.731,0,0,1,5.319,4.048l.025.231" transform="translate(-233 265)"/></clipPath></defs><g transform="translate(-7.88 368)"><g class="q" transform="translate(427.286 -292.7)"><g class="r" transform="translate(-1000.794 -424.659)"><path class="b" d="M483-287h71.8v107.7H483Z" transform="translate(513.416 707.281)"/></g></g><g class="s" transform="translate(353.737 -267.308)"><g class="r" transform="translate(-927.245 -450.051)"><path class="b" d="M399-258h89.31v112.075H399Z" transform="translate(523.867 703.673)"/></g></g><g class="t" transform="translate(448.3 -284.819)"><g class="r" transform="translate(-1021.808 -432.539)"><path class="b" d="M507-278h75.3v69.171H507Z" transform="translate(510.43 706.161)"/></g></g><g class="u" transform="translate(393.138 -286.571)"><g class="r" transform="translate(-966.646 -430.788)"><path class="b" d="M444-280h87.559v105.07H444Z" transform="translate(518.268 706.41)"/></g></g><g class="v" transform="translate(70.922 -306.709)"><g class="r" transform="translate(-644.431 -410.65)"><path class="b" d="M76-303h93.688v135.716H76Z" transform="translate(564.053 709.272)"/></g></g><g class="w" transform="translate(31.521 -288.322)"><g class="r" transform="translate(-605.029 -429.037)"><path class="b" d="M31-282h71.8v142.72H31Z" transform="translate(569.652 706.659)"/></g></g><g class="x" transform="translate(11.383 -272.561)"><g class="r" transform="translate(-584.891 -444.797)"><path class="b" d="M8-264H99.936v99.817H8Z" transform="translate(572.513 704.419)"/></g></g><g class="y" transform="translate(333.598 -339.106)"><g class="r" transform="translate(-907.106 -378.253)"><path class="b" d="M376-340h56.913v110.324H376Z" transform="translate(526.728 713.875)"/></g></g><g class="z" transform="translate(348.483 -243.667)"><g class="aa" transform="translate(-921.991 -473.692)"><path class="d" d="M393-231H570.744V-24.362H393Z" transform="translate(524.613 700.314)"/></g></g><g class="ab" transform="translate(348.483 -242.791)"><g class="ac" transform="translate(-921.991 -474.567)"><path class="f" d="M393-230H570.744v18.387H393Z" transform="translate(524.613 700.189)"/></g></g><g class="ad" transform="translate(340.603 -243.667)"><g class="ae" transform="translate(-914.111 -704.964)"><path class="h" d="M384-235H576.629v23.63H384Z" transform="translate(525.733 933.401)"/></g></g><g class="af" transform="translate(429.037 -219.152)"><g class="ag" transform="translate(-1002.545 -498.207)"><path class="j" d="M485-203h15.76V-48.9H485Z" transform="translate(513.167 696.83)"/></g></g><g class="ah" transform="translate(464.06 -219.15)"><g class="ag" transform="translate(-1037.569 -498.208)"><path class="j" d="M525-203h28.019V-48.9H525Z" transform="translate(508.191 696.83)"/></g></g><g class="ai" transform="translate(382.631 -219.151)"><g class="ag" transform="translate(-956.139 -498.208)"><path class="j" d="M432-203h28.019V-48.9H432Z" transform="translate(519.761 696.83)"/></g></g><g class="aj" transform="translate(274.058 -333.852)"><g class="r" transform="translate(-847.567 -383.506)"><path class="b" d="M308-334H414.821v70.047H308Z" transform="translate(535.189 713.128)"/></g></g><g class="ak" transform="translate(7.88 -243.667)"><g class="aa" transform="translate(-581.389 -473.692)"><path class="d" d="M4-231H181.744L168.529-18.916,4-24.362Z" transform="translate(573.011 700.314)"/></g></g><g class="al" transform="translate(7.88 -242.791)"><g class="am" transform="translate(-581.389 -474.567)"><path class="f" d="M4-230H181.744v18.387H4Z" transform="translate(573.011 700.189)"/></g></g><g class="an" transform="translate(88.434 -219.152)"><g class="ag" transform="translate(-661.943 -498.207)"><path class="j" d="M96-203h15.761V-48.9H96Z" transform="translate(561.565 696.83)"/></g></g><g class="ao" transform="translate(123.458 -219.15)"><g class="ag" transform="translate(-696.966 -498.208)"><path class="j" d="M136-203h28.019V-48.9H136Z" transform="translate(556.588 696.83)"/></g></g><g class="ap" transform="translate(42.028 -219.151)"><g class="ag" transform="translate(-615.536 -498.208)"><path class="j" d="M43-203H71.019V-48.9H43Z" transform="translate(568.159 696.83)"/></g></g><g class="aq" transform="translate(245.164 -368)"><g class="r" transform="translate(-818.672 -349.359)"><path class="b" d="M275-373h82.305v96.314H275Z" transform="translate(539.294 717.981)"/></g></g><g class="ar" transform="translate(169.864 -360.12)"><g class="r" transform="translate(-743.372 -357.239)"><path class="b" d="M189-364H294.946v109.448H189Z" transform="translate(549.994 716.861)"/></g></g><g class="as" transform="translate(218.021 -345.235)"><g class="r" transform="translate(-791.529 -372.124)"><path class="b" d="M244-347h55.162v110.324H244Z" transform="translate(543.151 714.746)"/></g></g><g class="at" transform="translate(158.481 -310.211)"><g class="au" transform="translate(-731.989 -407.147)"><path class="n" d="M176-307H410.657V-33.817H176Z" transform="translate(551.611 709.769)"/></g></g><g class="av" transform="translate(147.974 -314.589)"><g class="aw" transform="translate(-721.482 -402.769)"><path class="p" d="M164-312H418.8v18.387H164Z" transform="translate(553.104 710.391)"/></g></g><g class="ax" transform="translate(266.178 -277.816)"><g class="ag" transform="translate(-839.686 -439.542)"><path class="j" d="M299-270h18.387V-65.989H299Z" transform="translate(536.308 705.166)"/></g></g><g class="ay" transform="translate(312.584 -277.815)"><g class="ag" transform="translate(-886.092 -439.544)"><path class="j" d="M352-270h34.148V-65.989H352Z" transform="translate(529.714 705.166)"/></g></g><g class="az" transform="translate(204.011 -277.815)"><g class="ag" transform="translate(-777.52 -439.544)"><path class="j" d="M228-270h34.148V-65.989H228Z" transform="translate(545.142 705.166)"/></g></g></g></svg>